<svg width="20.000000" height="20.000000" viewBox="0 0 20 20" fill="none" xmlns="http://www.w3.org/2000/svg" xmlns:xlink="http://www.w3.org/1999/xlink">
	<desc>
			Created with Pixso.
	</desc>
	<defs/>
	<path id="Subtract" d="M10 20C1.76562 20 0 18.2351 0 10C0 1.76489 1.76562 0 10 0C16.4668 0 18.9434 1.08862 19.709 5.54443C19.7344 5.69507 19.6191 5.83325 19.4648 5.83325L14.166 5.83325C13.6191 5.83325 13.0781 5.94116 12.5723 6.15039C12.0664 6.35986 11.6074 6.66675 11.2207 7.05371C10.834 7.44067 10.5273 7.8999 10.3164 8.40552C10.1074 8.91113 10 9.45288 10 10C10 10.5471 10.1074 11.0889 10.3164 11.5945C10.5273 12.1001 10.834 12.5593 11.2207 12.9463C11.6074 13.3333 12.0664 13.6401 12.5723 13.8496C13.0781 14.0588 13.6191 14.1667 14.166 14.1667L19.4648 14.1667C19.6191 14.1667 19.7344 14.3049 19.709 14.4556C18.9434 18.9114 16.4668 20 10 20ZM19.9434 12.2664C19.9824 11.5715 20 10.8176 20 10C20 9.18237 19.9824 8.42847 19.9434 7.73364C19.9355 7.60229 19.8262 7.5 19.6953 7.5L14.166 7.5C13.8379 7.5 13.5137 7.5647 13.209 7.69019C12.9062 7.81592 12.6309 8 12.3984 8.23218C12.166 8.46436 11.9824 8.73999 11.8574 9.04321C11.7305 9.34668 11.666 9.67163 11.666 10C11.666 10.3284 11.7305 10.6533 11.8574 10.9568C11.9824 11.26 12.166 11.5356 12.3984 11.7678C12.6309 12 12.9062 12.1841 13.209 12.3098C13.5137 12.4353 13.8379 12.5 14.166 12.5L19.6953 12.5C19.8262 12.5 19.9355 12.3977 19.9434 12.2664ZM14.166 10C14.166 9.53979 14.5391 9.16675 15 9.16675L16.666 9.16675C17.127 9.16675 17.5 9.53979 17.5 10C17.5 10.4602 17.127 10.8333 16.666 10.8333L15 10.8333C14.5391 10.8333 14.166 10.4602 14.166 10Z" fill="#20C1CF" fill-opacity="1.000000" fill-rule="evenodd"/>
</svg>
