<svg width="8.650391" height="16.000000" viewBox="0 0 8.65039 16" fill="none" xmlns="http://www.w3.org/2000/svg" xmlns:xlink="http://www.w3.org/1999/xlink">
	<desc>
			Created with Pixso.
	</desc>
	<defs/>
	<path id="Vector" d="M8.32422 0.00332832L6.25 0C3.91797 0 2.41211 1.54552 2.41211 3.93762L2.41211 5.75313L0.326172 5.75313C0.146484 5.75313 0 5.89927 0 6.07954L0 8.71001C0 8.89028 0.146484 9.03625 0.326172 9.03625L2.41211 9.03625L2.41211 15.6738C2.41211 15.854 2.55859 16 2.73828 16L5.46094 16C5.64062 16 5.78711 15.8539 5.78711 15.6738L5.78711 9.03625L8.22656 9.03625C8.40625 9.03625 8.55273 8.89028 8.55273 8.71001L8.55273 6.07954C8.55273 5.99299 8.51953 5.9101 8.45703 5.84884C8.39648 5.78758 8.3125 5.75313 8.22656 5.75313L5.78711 5.75313L5.78711 4.2141C5.78711 3.47438 5.96289 3.09886 6.92578 3.09886L8.32422 3.09836C8.50391 3.09836 8.65039 2.95222 8.65039 2.77211L8.65039 0.329578C8.65039 0.149641 8.50391 0.00366211 8.32422 0.00332832Z" fill="#FFFFFF" fill-opacity="1.000000" fill-rule="nonzero"/>
</svg>
