<svg width="137.000000" height="53.000000" viewBox="0 0 137 53" fill="none" xmlns="http://www.w3.org/2000/svg" xmlns:xlink="http://www.w3.org/1999/xlink">
	<desc>
			Created with Pixso.
	</desc>
	<defs/>
	<rect id="logo" width="137.000000" height="53.000000" fill="#FFFFFF" fill-opacity="0"/>
	<path id="Adex" d="M58.9709 17.7571L60.098 21L62.95 21L57.131 4.90002L53.957 4.90002L48.115 21L50.99 21L52.1169 17.7571L58.9709 17.7571ZM74.3617 5.6283Q72.8606 4.90002 71.0062 4.90002L64.6813 4.90002L64.6813 21L71.0062 21Q72.8607 21 74.3618 20.2717L74.3618 20.2717Q75.5417 19.6993 76.5033 18.677Q77.4119 17.7115 77.9467 16.5709L77.9467 16.5708Q78.7113 14.9397 78.7113 12.9501Q78.7113 10.8776 77.8928 9.20569Q77.3669 8.13171 76.5033 7.22302Q75.5417 6.20068 74.3618 5.6283L74.3617 5.6283ZM83.7677 18.47L90.8977 18.47L90.8977 21L81.1227 21L81.1227 4.90002L90.7827 4.90002L90.7827 7.43005L83.7677 7.43005L83.7677 11.616L90.2076 11.616L90.2076 14.123L83.7677 14.123L83.7677 18.47ZM102.151 21L105.164 21L100.127 12.72L104.888 4.90002L101.875 4.90002L98.609 10.259L95.343 4.90002L92.353 4.90002L97.114 12.72L92.054 21L95.067 21L98.609 15.181L102.151 21ZM73.4718 17.8857Q72.3979 18.47 71.0062 18.47L67.3263 18.47L67.3263 7.43005L71.0062 7.43005Q72.3979 7.43005 73.4718 8.01428Q74.1549 8.38599 74.7092 8.99402Q75.0902 9.39917 75.371 9.86462Q76.1583 11.1699 76.1583 12.9501Q76.1583 14.651 75.4255 15.9332L75.4255 15.9333Q75.1278 16.4542 74.7092 16.906Q74.1549 17.514 73.4718 17.8857L73.4718 17.8857ZM58.097 15.2731L52.991 15.2731L55.5439 8.005L58.097 15.2731Z" fill="#FFFFFF" fill-opacity="1.000000" fill-rule="evenodd"/>
	<path id="capital" d="M57.2229 47.299Q54.9651 47.299 53.1866 46.3755Q52.1028 45.8127 51.1969 44.907Q50.1707 43.8707 49.5846 42.6271Q48.8049 40.9722 48.8049 38.95Q48.8049 36.9017 49.6047 35.2382Q50.1881 34.0248 51.1969 33.016Q52.125 32.079 53.2401 31.5055Q54.9989 30.601 57.2229 30.601Q58.6068 30.601 59.8522 31.0161Q60.5732 31.2565 61.2479 31.636Q62.4332 32.2944 63.2833 33.2509Q63.7694 33.7977 64.1459 34.4419L61.8459 35.776Q61.615 35.347 61.3071 34.9833L61.3071 34.9832Q60.7565 34.3325 59.96 33.8899Q59.6665 33.7184 59.3557 33.588Q58.3755 33.177 57.2229 33.177Q55.4423 33.177 54.1232 33.9573Q53.5341 34.3058 53.037 34.8099Q52.5093 35.3529 52.1571 35.9924Q51.45 37.2765 51.45 38.95Q51.45 40.6234 52.1571 41.9075Q52.5093 42.547 53.037 43.09Q53.5341 43.5941 54.1232 43.9426Q55.4423 44.7229 57.2229 44.7229Q58.3745 44.7229 59.3673 44.3258L59.3673 44.3258Q59.6831 44.1995 59.9829 44.033C60.8109 43.5576 61.4319 42.9213 61.8459 42.1239L64.1459 43.4349Q63.8163 44.0118 63.3964 44.5131Q62.5271 45.5507 61.2709 46.2639C60.0443 46.954 58.6949 47.299 57.2229 47.299ZM76.719 47L75.592 43.757L68.738 43.757L67.6111 47L64.7361 47L70.578 30.8999L73.7521 30.8999L79.571 47L76.719 47ZM87.2363 30.8999C88.7543 30.8999 90.0193 31.406 91.0314 32.418C92.0586 33.4299 92.5723 34.6873 92.5723 36.1899C92.5723 37.6772 92.0586 38.9346 91.0314 39.9619Q90.4242 40.5691 89.6956 40.9335L89.6954 40.9335Q88.6025 41.48 87.2363 41.48L83.9473 41.48L83.9473 47L81.3024 47L81.3024 30.8999L87.2363 30.8999ZM94.8688 30.8999L97.5137 30.8999L97.5137 47L94.8688 47L94.8688 30.8999ZM111.196 30.8999L111.196 33.4299L106.665 33.4299L106.665 47L104.02 47L104.02 33.4299L99.4661 33.4299L99.4661 30.8999L111.196 30.8999ZM122.494 47L121.367 43.757L114.513 43.757L113.386 47L110.511 47L116.353 30.8999L119.527 30.8999L125.346 47L122.494 47ZM129.723 44.47L136.278 44.47L136.278 47L127.078 47L127.078 30.8999L129.723 30.8999L129.723 44.47ZM87.2363 38.996C88.0183 38.996 88.6624 38.7352 89.1683 38.214C89.6743 37.6772 89.9274 37.0026 89.9274 36.1899C89.9274 35.3773 89.6743 34.7103 89.1683 34.189Q88.8591 33.8611 88.4812 33.6667Q87.9315 33.3839 87.2363 33.3839L83.9473 33.3839L83.9473 38.996L87.2363 38.996ZM69.6121 41.2729L74.718 41.2729L72.165 34.005L69.6121 41.2729ZM115.387 41.2729L120.493 41.2729L117.94 34.005L115.387 41.2729Z" fill="#FFFFFF" fill-opacity="1.000000" fill-rule="evenodd"/>
	<path id="Rectangle 212 (Stroke)" d="M0.0349121 31.9875C0.569214 24.2609 7.17529 18.1545 15.2461 18.1545L32 18.1545L32 26.3113L15.2461 26.3113C11.8047 26.3113 8.95435 28.7756 8.45459 31.9907C8.36865 32.5437 7.92334 32.9999 7.36389 32.9999L1.01318 32.9999C0.453613 32.9999 -0.00366211 32.5458 0.0349121 31.9875Z" fill="#535FE6" fill-opacity="1.000000" fill-rule="evenodd"/>
	<path id="Rectangle 214 (Stroke)" d="M0 31.6902C0 20.3885 9.37622 11.2267 20.9424 11.2267L32 11.2267L32 19.4121L20.9424 19.4121C14.0027 19.4121 8.37695 24.9092 8.37695 31.6902L8.37695 31.9868C8.37695 32.5463 7.92334 32.9999 7.36389 32.9999L1.01318 32.9999C0.453613 32.9999 0 32.5463 0 31.9868L0 31.6902Z" fill="#4452EE" fill-opacity="1.000000" fill-rule="evenodd"/>
	<path id="Rectangle 211 (Stroke)" d="M0 30.3046C0 18.6749 9.37622 9.24731 20.9424 9.24731L32 9.24731L32 17.6702L20.9424 17.6702C14.0027 17.6702 8.37695 23.3268 8.37695 30.3046L8.37695 31.9868C8.37695 32.5463 7.92334 32.9999 7.36389 32.9999L1.01318 32.9999C0.453613 32.9999 0 32.5463 0 31.9868L0 30.3046Z" fill="#1B1A1A" fill-opacity="1.000000" fill-rule="evenodd"/>
	<path id="Rectangle 213 (Stroke)" d="M0 23.2681C0 11.8807 9.37622 2.64954 20.9424 2.64954L32 2.64954L32 10.897L20.9424 10.897C14.0027 10.897 8.37695 16.4357 8.37695 23.2681L8.37695 31.9869C8.37695 32.5465 7.92334 33 7.36389 33L1.01318 33C0.453613 33 0 32.5465 0 31.9869L0 23.2681Z" fill="#0F828C" fill-opacity="1.000000" fill-rule="evenodd"/>
	<path id="Rectangle 210 (Stroke)" d="M0 21.9424C0 10.3762 9.37622 1 20.9424 1L30.9868 1C31.5464 1 32 1.45361 32 2.01318L32 9.37695L20.9424 9.37695C14.0027 9.37695 8.37695 15.0027 8.37695 21.9424L8.37695 31.9868C8.37695 32.5464 7.92334 33 7.36389 33L1.01318 33C0.453613 33 0 32.5464 0 31.9868L0 21.9424Z" fill="#20C1CF" fill-opacity="1.000000" fill-rule="evenodd"/>
	<path id="Vector 47 (Stroke)" d="M23.7526 31.9868L23.7526 1L30.9868 1C31.5464 1 32 1.45361 32 2.01318L32 31.9868C32 32.5464 31.5464 33 30.9868 33L24.7657 33C24.2062 33 23.7526 32.5464 23.7526 31.9868Z" fill="#535FE6" fill-opacity="1.000000" fill-rule="evenodd"/>
</svg>
