<svg width="24.000000" height="24.000000" viewBox="0 0 24 24" fill="none" xmlns="http://www.w3.org/2000/svg" xmlns:xlink="http://www.w3.org/1999/xlink">
	<desc>
			Created with Pixso.
	</desc>
	<defs/>
	<rect id="24px / menu" width="24.000000" height="24.000000" fill="#FFFFFF" fill-opacity="0"/>
	<path id="Path (Stroke)" d="M1.99609 5.9975C1.99609 5.44522 2.44336 4.9975 2.99609 4.9975L21.0039 4.9975C21.5566 4.9975 22.0039 5.44522 22.0039 5.9975C22.0039 6.54979 21.5566 6.9975 21.0039 6.9975L2.99609 6.9975C2.44336 6.9975 1.99609 6.54979 1.99609 5.9975Z" fill="#FFFFFF" fill-opacity="1.000000" fill-rule="evenodd"/>
	<path id="Path (Stroke)" d="M1.99609 12C1.99609 11.4477 2.44336 11 2.99609 11L17.002 11C17.5547 11 18.002 11.4477 18.002 12C18.002 12.5523 17.5547 13 17.002 13L2.99609 13C2.44336 13 1.99609 12.5523 1.99609 12Z" fill="#FFFFFF" fill-opacity="1.000000" fill-rule="evenodd"/>
	<path id="Path (Stroke)" d="M1.99609 18.0025C1.99609 17.4502 2.44336 17.0025 2.99609 17.0025L13 17.0025C13.5527 17.0025 14 17.4502 14 18.0025C14 18.5548 13.5527 19.0025 13 19.0025L2.99609 19.0025C2.44336 19.0025 1.99609 18.5548 1.99609 18.0025Z" fill="#FFFFFF" fill-opacity="1.000000" fill-rule="evenodd"/>
</svg>
