<svg width="18.000000" height="18.000000" viewBox="0 0 18 18" fill="none" xmlns="http://www.w3.org/2000/svg" xmlns:xlink="http://www.w3.org/1999/xlink">
	<desc>
			Created with Pixso.
	</desc>
	<defs/>
	<path id="Subtract" d="M0.166016 6.74436C-0.0117188 7.9201 -0.21875 11.05 0.550781 14.5727C0.976562 16.5158 2.08008 17.4072 4.40625 17.7041C4.55078 17.7224 4.69336 17.7398 4.83594 17.7564C5.05664 17.782 5.25 17.6079 5.25 17.3849L5.25 12.0855C5.25 10.8402 6.25781 9.8306 7.5 9.8306L10.5 9.8306C11.7422 9.8306 12.75 10.8402 12.75 12.0855L12.75 17.3913C12.75 17.6138 12.9414 17.7878 13.1621 17.763C13.3281 17.7444 13.4941 17.7248 13.6602 17.704C15.9883 17.4133 17.1289 16.5298 17.5156 14.5727C18.1934 11.1294 17.9883 8.05904 17.9062 6.82673C17.9043 6.79829 17.9023 6.77083 17.9004 6.74436C17.8457 5.90533 13.334 2.46249 10.7676 0.569435C9.73438 -0.192848 8.33398 -0.189384 7.30469 0.577339C4.75977 2.47155 0.292969 5.90472 0.166016 6.74436ZM7.10156 17.9489C6.9043 17.9383 6.75 17.7739 6.75 17.5756L6.75 12.0855C6.75 11.6704 7.08594 11.3339 7.5 11.3339L10.5 11.3339C10.9141 11.3339 11.25 11.6704 11.25 12.0855L11.25 17.5768C11.25 17.7754 11.0957 17.9399 10.8984 17.9503C9.62305 18.017 8.36523 18.0166 7.10156 17.9489Z" fill="#FFFFFF" fill-opacity="1.000000" fill-rule="evenodd"/>
</svg>
