<svg width="18.000000" height="18.000000" viewBox="0 0 18 18" fill="none" xmlns="http://www.w3.org/2000/svg" xmlns:xlink="http://www.w3.org/1999/xlink">
	<desc>
			Created with Pixso.
	</desc>
	<defs/>
	<path id="Subtract" d="M0 8.25C0 13.361 0.898438 15.4511 4.5 16.173L4.5 17.25C4.5 17.6642 4.83594 18 5.25 18C5.66406 18 6 17.6642 6 17.25L6 16.3846C6.875 16.4661 7.86914 16.5 9 16.5C10.1309 16.5 11.125 16.4661 12 16.3846L12 17.25C12 17.6642 12.3359 18 12.75 18C13.1641 18 13.5 17.6642 13.5 17.25L13.5 16.173C17.1016 15.4511 18 13.361 18 8.25C18 1.45612 16.4121 0 9 0C1.58789 0 0 1.45612 0 8.25ZM9.75 5.25C9.75 5.28151 9.74805 5.31256 9.74414 5.34305C10.8027 5.61334 11.6367 6.44688 11.9062 7.50571C11.9375 7.50195 11.9688 7.5 12 7.5L12.75 7.5C13.1641 7.5 13.5 7.83578 13.5 8.25C13.5 8.66422 13.1641 9 12.75 9L12 9C11.9688 9 11.9375 8.99805 11.9062 8.99429C11.6367 10.0531 10.8027 10.8867 9.74414 11.157C9.74805 11.1874 9.75 11.2185 9.75 11.25L9.75 12C9.75 12.4142 9.41406 12.75 9 12.75C8.58594 12.75 8.25 12.4142 8.25 12L8.25 11.25C8.25 11.2185 8.25195 11.1874 8.25586 11.157C7.19727 10.8867 6.36328 10.0531 6.09375 8.99429C6.0625 8.99805 6.03125 9 6 9L5.25 9C4.83594 9 4.5 8.66422 4.5 8.25C4.5 7.83578 4.83594 7.5 5.25 7.5L6 7.5C6.03125 7.5 6.0625 7.50195 6.09375 7.50571C6.36328 6.44688 7.19727 5.61334 8.25586 5.34305C8.25195 5.31256 8.25 5.28151 8.25 5.25L8.25 4.5C8.25 4.08578 8.58594 3.75 9 3.75C9.41406 3.75 9.75 4.08578 9.75 4.5L9.75 5.25ZM9 9.75C9.82812 9.75 10.5 9.07843 10.5 8.25C10.5 7.42157 9.82812 6.75 9 6.75C8.17188 6.75 7.5 7.42157 7.5 8.25C7.5 9.07843 8.17188 9.75 9 9.75Z" fill="#FFFFFF" fill-opacity="1.000000" fill-rule="evenodd"/>
</svg>
