<svg width="18.000000" height="18.000000" viewBox="0 0 18 18" fill="none" xmlns="http://www.w3.org/2000/svg" xmlns:xlink="http://www.w3.org/1999/xlink">
	<desc>
			Created with Pixso.
	</desc>
	<defs/>
	<path id="Subtract" d="M9 18C1.58789 18 0 16.4115 0 9C0 1.5885 1.58789 0 9 0C16.4121 0 18 1.5885 18 9C18 16.4115 16.4121 18 9 18ZM8.25 4.5C8.25 4.08577 8.58594 3.75 9 3.75C9.41406 3.75 9.75 4.08577 9.75 4.5L9.75 8.25L13.5 8.25C13.9141 8.25 14.25 8.58577 14.25 9C14.25 9.41423 13.9141 9.75 13.5 9.75L9 9.75C8.58594 9.75 8.25 9.41423 8.25 9L8.25 4.5Z" fill="#FFFFFF" fill-opacity="1.000000" fill-rule="evenodd"/>
</svg>
