<svg width="18.000000" height="18.000000" viewBox="0 0 18 18" fill="none" xmlns="http://www.w3.org/2000/svg" xmlns:xlink="http://www.w3.org/1999/xlink">
	<desc>
			Created with Pixso.
	</desc>
	<defs/>
	<path id="Subtract" d="M0.636719 4.5C0.492188 4.5 0.386719 4.36625 0.419922 4.22691C1.26367 0.853279 3.56836 0 9 0C14.4316 0 16.7363 0.853279 17.5801 4.22691C17.6133 4.36625 17.5078 4.5 17.3633 4.5L0.636719 4.5ZM9 18C1.58789 18 0 16.4115 0 9C0 8.55114 0.00585938 8.12364 0.0175781 7.71655C0.0214844 7.59564 0.121094 7.5 0.242188 7.5L17.7578 7.5C17.8789 7.5 17.9785 7.59564 17.9824 7.71655C17.9941 8.12364 18 8.55114 18 9C18 16.4115 16.4121 18 9 18ZM14.25 13.5C14.25 13.9142 13.9141 14.25 13.5 14.25L10.5 14.25C10.0859 14.25 9.75 13.9142 9.75 13.5C9.75 13.0858 10.0859 12.75 10.5 12.75L13.5 12.75C13.9141 12.75 14.25 13.0858 14.25 13.5Z" fill="#FFFFFF" fill-opacity="1.000000" fill-rule="evenodd"/>
</svg>
