<svg width="17.986328" height="18.000000" viewBox="0 0 17.9863 18" fill="none" xmlns="http://www.w3.org/2000/svg" xmlns:xlink="http://www.w3.org/1999/xlink">
	<desc>
			Created with Pixso.
	</desc>
	<defs/>
	<path id="Subtract" d="M17.9863 7.25255C17.9902 7.4091 17.7754 7.46899 17.6914 7.33639C17.2754 6.67206 16.7871 6.06487 16.2441 5.51421C13.9883 3.22823 10.8184 1.96834 7.79297 1.55382C7.07617 1.45575 6.36133 1.40392 5.6582 1.39839C5.54102 1.39746 5.4707 1.26743 5.54688 1.17714C5.77344 0.913361 6.0957 0.679283 6.55664 0.503593C8.24219 -0.137871 15.1641 -0.442383 16.8496 1.32164C17.5938 2.10025 17.9043 4.58206 17.9863 7.25255ZM17.6289 15.1536C17.6816 14.8915 17.7383 14.4626 17.791 13.9143C17.9785 10.7011 16.8848 8.29852 15.1758 6.56779C13.2109 4.57643 10.3789 3.42227 7.58984 3.03993C6.48633 2.88889 5.41406 2.86123 4.42578 2.94178C0.310547 3.46584 -0.455078 5.31661 0.212891 10.3838C1.04102 16.6557 2.76172 18 9.96484 18C14.9238 18 16.9688 17.6108 17.5938 15.1507C17.5977 15.1406 17.6133 15.1414 17.6133 15.1518C17.6133 15.1623 17.627 15.1638 17.6289 15.1536ZM3.75 10.5C3.75 10.0858 4.08594 9.75 4.5 9.75L7.5 9.75C7.91406 9.75 8.25 10.0858 8.25 10.5C8.25 10.9142 7.91406 11.25 7.5 11.25L4.5 11.25C4.08594 11.25 3.75 10.9142 3.75 10.5ZM10.5 12.75C10.9141 12.75 11.25 13.0858 11.25 13.5C11.25 13.9142 10.9141 14.25 10.5 14.25L4.5 14.25C4.08594 14.25 3.75 13.9142 3.75 13.5C3.75 13.0858 4.08594 12.75 4.5 12.75L10.5 12.75Z" fill="#FFFFFF" fill-opacity="1.000000" fill-rule="evenodd"/>
</svg>
