<svg width="16.500000" height="18.000000" viewBox="0 0 16.5 18" fill="none" xmlns="http://www.w3.org/2000/svg" xmlns:xlink="http://www.w3.org/1999/xlink">
	<desc>
			Created with Pixso.
	</desc>
	<defs/>
	<path id="Subtract" d="M6.02148 1.81982C6.48047 -0.606606 10.0195 -0.606606 10.4785 1.81982C10.7344 3.16431 12.1504 3.9677 13.4629 3.51269C15.832 2.69151 17.5996 5.70189 15.6914 7.30713C14.6348 8.1966 14.6348 9.8034 15.6914 10.6929C17.5996 12.2981 15.832 15.3085 13.4629 14.4873C12.1504 14.0323 10.7344 14.8357 10.4785 16.1802C10.0195 18.6066 6.48047 18.6066 6.02148 16.1802C5.76562 14.8357 4.34961 14.0323 3.03711 14.4873C0.667969 15.3085 -1.09961 12.2981 0.808594 10.6929C1.86523 9.8034 1.86523 8.1966 0.808594 7.30713C-1.09961 5.70189 0.667969 2.69151 3.03711 3.51269C4.34961 3.9677 5.76562 3.16431 6.02148 1.81982ZM8.25 12C6.59375 12 5.25 10.6569 5.25 9C5.25 7.34315 6.59375 6 8.25 6C9.90625 6 11.25 7.34315 11.25 9C11.25 10.6569 9.90625 12 8.25 12ZM8.25 10.5C7.42188 10.5 6.75 9.82843 6.75 9C6.75 8.17157 7.42188 7.5 8.25 7.5C9.07812 7.5 9.75 8.17157 9.75 9C9.75 9.82843 9.07812 10.5 8.25 10.5Z" fill="#FFFFFF" fill-opacity="1.000000" fill-rule="evenodd"/>
</svg>
