<svg width="25.000000" height="28.000000" viewBox="0 0 25 28" fill="none" xmlns="http://www.w3.org/2000/svg" xmlns:xlink="http://www.w3.org/1999/xlink">
	<desc>
			Created with Pixso.
	</desc>
	<defs/>
	<rect id="24px / notification" width="24.000000" height="24.000000" transform="translate(0.000000 4.000000)" fill="#FFFFFF" fill-opacity="0"/>
	<path id="Union" d="M13 5C13 5.01746 13 5.03479 12.998 5.05206C16.3457 5.53442 19.4961 9.29938 19 13.5C18.7422 14.7861 19.5449 15.4608 20.3828 16.1672L20.3828 16.1672C21.1758 16.8339 22 17.5288 22 18.7925C22 20.5 21 21.5 19.5312 21.9719C19.5312 21.9719 16.8438 23 12 23C7.1582 23 4.46875 21.9719 4.46875 21.9719C3 21.5 2 20.5484 2 18.7925C1.98438 17.5396 2.80859 16.845 3.60547 16.1752C4.44727 15.4664 5.25781 14.7854 5 13.5C4.50391 9.2995 7.6543 5.53461 11.002 5.05212C11 5.03485 11 5.01746 11 5C11 4.44769 11.4473 4 12 4C12.5527 4 13 4.44769 13 5ZM8.22656 25.6C7.89648 25.1581 7.98633 24.5314 8.42773 24.2C8.86914 23.8687 9.49609 23.9582 9.82812 24.4C10.9277 25.8666 13.127 25.8666 14.2266 24.4C14.5586 23.9582 15.1855 23.8687 15.627 24.2C16.0684 24.5314 16.1582 25.1581 15.8281 25.6C13.9277 28.1334 10.127 28.1334 8.22656 25.6Z" fill="#FFFFFF" fill-opacity="1.000000" fill-rule="evenodd"/>
	<rect id="num" rx="6.500000" width="13.000000" height="14.000000" transform="translate(12.000000 0.000000)" fill="#20C1CF" fill-opacity="1.000000"/>
	<path id="3" d="M19.2678 6.13C19.8758 6.274 20.3678 6.558 20.7438 6.982C21.1278 7.398 21.3198 7.922 21.3198 8.554C21.3198 9.394 21.0358 10.054 20.4678 10.534C19.8998 11.014 19.2038 11.254 18.3798 11.254C17.7398 11.254 17.1638 11.106 16.6518 10.81C16.1478 10.514 15.7838 10.082 15.5598 9.514L16.7358 8.83C16.9838 9.55 17.5318 9.91 18.3798 9.91C18.8598 9.91 19.2398 9.79 19.5198 9.55C19.7998 9.302 19.9398 8.97 19.9398 8.554C19.9398 8.138 19.7998 7.81 19.5198 7.57C19.2398 7.33 18.8598 7.21 18.3798 7.21L18.0678 7.21L17.5158 6.382L19.3278 3.994L15.8118 3.994L15.8118 2.698L20.9718 2.698L20.9718 3.874L19.2678 6.13Z" fill="#FFFFFF" fill-opacity="1.000000" fill-rule="evenodd"/>
</svg>
