<svg width="14.000000" height="11.375000" viewBox="0 0 14 11.375" fill="none" xmlns="http://www.w3.org/2000/svg" xmlns:xlink="http://www.w3.org/1999/xlink">
	<desc>
			Created with Pixso.
	</desc>
	<defs/>
	<path id="Vector" d="M14 1.34662C13.4785 1.575 12.9238 1.72638 12.3457 1.79988C12.9414 1.44463 13.3945 0.886375 13.6094 0.213499C13.0547 0.54425 12.4414 0.777876 11.7891 0.908251C11.2617 0.347376 10.5117 0 9.69141 0C8.10352 0 6.82422 1.28975 6.82422 2.87087C6.82422 3.09838 6.84375 3.31713 6.89062 3.52538C4.50391 3.409 2.39258 2.26538 0.974609 0.523251C0.726562 0.952875 0.582031 1.44463 0.582031 1.974C0.582031 2.968 1.09375 3.84912 1.85742 4.35925C1.39648 4.3505 0.943359 4.21663 0.560547 4.00575C0.560547 4.0145 0.560547 4.02588 0.560547 4.03725C0.560547 5.432 1.55469 6.5905 2.85938 6.85738C2.625 6.92125 2.37109 6.95187 2.10742 6.95187C1.92383 6.95187 1.73828 6.94138 1.56445 6.90287C1.93555 8.0395 2.99023 8.87512 4.24609 8.90225C3.26953 9.66613 2.0293 10.1264 0.6875 10.1264C0.451172 10.1264 0.226562 10.1159 0 10.087C1.27148 10.9069 2.77734 11.375 4.40234 11.375C9.68359 11.375 12.5723 7 12.5723 3.20775C12.5723 3.08088 12.5684 2.95838 12.5605 2.83675C13.1309 2.4325 13.6094 1.92763 14 1.34662Z" fill="#FFFFFF" fill-opacity="1.000000" fill-rule="nonzero"/>
</svg>
