<svg width="24.000000" height="24.000000" viewBox="0 0 24 24" fill="none" xmlns="http://www.w3.org/2000/svg" xmlns:xlink="http://www.w3.org/1999/xlink">
	<desc>
			Created with Pixso.
	</desc>
	<defs>
		<clipPath id="clip2_8546">
			<rect id="24px / united-kingdom" width="24.000000" height="24.000000" fill="white" fill-opacity="0"/>
		</clipPath>
	</defs>
	<rect id="24px / united-kingdom" width="24.000000" height="24.000000" fill="#FFFFFF" fill-opacity="0"/>
	<g clip-path="url(#clip2_8546)">
		<path id="Vector" d="M3.60938 6.75L20.3906 6.75L20.3906 17.25L3.60938 17.25L3.60938 6.75Z" fill="#4A7AFF" fill-opacity="1.000000" fill-rule="nonzero"/>
		<path id="Vector" d="M11.9805 6.75L20.3906 6.75L20.3906 17.25L11.9805 17.25L11.9805 6.75Z" fill="#0053BF" fill-opacity="1.000000" fill-rule="nonzero"/>
		<path id="Vector" d="M20.3906 6.75L18.3574 6.75L12 10.7282L5.64258 6.75L3.60938 6.75L3.60938 8.02176L9.9668 12L3.60938 15.9782L3.60938 17.25L5.64258 17.25L12 13.2718L18.3574 17.25L20.3906 17.25L20.3906 15.9781L14.0332 12L20.3906 8.02186L20.3906 6.75Z" fill="#FA5D0F" fill-opacity="1.000000" fill-rule="nonzero"/>
		<path id="Vector" d="M20.3906 6.75L18.3574 6.75L12 10.7282L11.9805 10.7163L11.9805 13.2837L12 13.2718L18.3574 17.25L20.3906 17.25L20.3906 15.9781L14.0312 12L20.3906 8.02186L20.3906 6.75Z" fill="#D13400" fill-opacity="1.000000" fill-rule="nonzero"/>
		<path id="Vector" d="M20.3906 10.6875L13.3125 10.6875L13.3125 6.75L10.6875 6.75L10.6875 10.6875L3.60938 10.6875L3.60938 13.3125L10.6875 13.3125L10.6875 17.25L13.3125 17.25L13.3125 13.3125L20.3906 13.3125L20.3906 10.6875Z" fill="#FA5D0F" fill-opacity="1.000000" fill-rule="nonzero"/>
		<path id="Vector" d="M13.3125 10.6875L13.3125 6.75L11.9805 6.75L11.9805 17.25L13.3125 17.25L13.3125 13.3125L20.3906 13.3125L20.3906 10.6875L13.3125 10.6875Z" fill="#D13400" fill-opacity="1.000000" fill-rule="nonzero"/>
		<path id="Vector" d="M10.3125 6.75L10.3125 9.22997L6.34961 6.75L4.93555 6.75L10.3125 10.1147L10.3125 10.3125L7.97656 10.3125L3.60938 7.57941L3.60938 8.46412L6.56445 10.3125L3.60938 10.3125L3.60938 11.0625L11.0625 11.0625L11.0625 6.75L10.3125 6.75Z" fill="#FFFFFF" fill-opacity="1.000000" fill-rule="nonzero"/>
		<path id="Vector" d="M3.60938 13.6875L6.56445 13.6875L3.60938 15.5359L3.60938 16.4206L7.97656 13.6875L10.3125 13.6875L10.3125 13.8853L4.93555 17.25L6.34961 17.25L10.3125 14.77L10.3125 17.25L11.0625 17.25L11.0625 12.9375L3.60938 12.9375L3.60938 13.6875Z" fill="#FFFFFF" fill-opacity="1.000000" fill-rule="nonzero"/>
		<path id="Vector" d="M20.3906 7.5795L16.0234 10.3125L13.6875 10.3125L13.6875 10.1148L19.0645 6.75L17.6504 6.75L13.6875 9.23006L13.6875 6.75L12.9375 6.75L12.9375 11.0625L20.3906 11.0625L20.3906 10.3125L17.4375 10.3125L20.3906 8.46422L20.3906 7.5795Z" fill="#E9EDF5" fill-opacity="1.000000" fill-rule="nonzero"/>
		<path id="Vector" d="M12.9375 17.25L13.6875 17.25L13.6875 14.7699L17.6504 17.25L19.0645 17.25L13.6875 13.8852L13.6875 13.6875L16.0234 13.6875L20.3906 16.4205L20.3906 15.5358L17.4375 13.6875L20.3906 13.6875L20.3906 12.9375L12.9375 12.9375L12.9375 17.25Z" fill="#E9EDF5" fill-opacity="1.000000" fill-rule="nonzero"/>
	</g>
</svg>
