<svg width="15.000000" height="10.502379" viewBox="0 0 15 10.5024" fill="none" xmlns="http://www.w3.org/2000/svg" xmlns:xlink="http://www.w3.org/1999/xlink">
	<desc>
			Created with Pixso.
	</desc>
	<defs/>
	<path id="Vector" d="M14.6914 1.64337C14.5176 1.00076 14.0117 0.494202 13.3691 0.321167C12.1953 0 7.5 0 7.5 0C7.5 0 2.80469 0 1.63086 0.30899C1 0.481842 0.482422 1.00085 0.308594 1.64337C0 2.81708 0 5.25119 0 5.25119C0 5.25119 0 7.69757 0.308594 8.85901C0.482422 9.50152 0.988281 10.0081 1.63086 10.1811C2.81641 10.5024 7.5 10.5024 7.5 10.5024C7.5 10.5024 12.1953 10.5024 13.3691 10.1934C14.0117 10.0204 14.5176 9.51388 14.6914 8.87137C15 7.69757 15 5.26355 15 5.26355C15 5.26355 15.0117 2.81708 14.6914 1.64337ZM6.00586 7.49991L6.00586 3.00247L9.91016 5.25119L6.00586 7.49991Z" fill="#FFFFFF" fill-opacity="1.000000" fill-rule="nonzero"/>
</svg>
